<?xml version="1.0" encoding="UTF-8" standalone="no"?>
<svg xmlns:inkscape="http://www.inkscape.org/namespaces/inkscape" xmlns:sodipodi="http://sodipodi.sourceforge.net/DTD/sodipodi-0.dtd" xmlns="http://www.w3.org/2000/svg" xmlns:svg="http://www.w3.org/2000/svg" width="64" height="64" version="1.1" id="svg10" sodipodi:docname="345709be5bb062988ae0230eaaff6ba1.svg"><metadata><meta name="Producer" content="Online-Convert"/></metadata>
  <sodipodi:namedview id="namedview12" pagecolor="#ffffff" bordercolor="#666666" borderopacity="1.0" inkscape:pageshadow="2" inkscape:pageopacity="0.0" inkscape:pagecheckerboard="0"/>
  <defs id="defs2"/>
  <g id="g8">
    <path stroke="none" fill="#ffffff" d="M 0,16 V 0 H 16 48 64 V 16 L 48,0 32,16 16,0 0,16 M 64,32 V 48 L 48,32 32,48 16,32 0,48 V 32 L 16,16 32,32 48,16 64,32 m 0,32 H 32 0 L 16,48 32,64 48,48 64,64" id="path4"/>
    <path stroke="none" fill="#000000" d="M 64,64 48,48 32,64 16,48 0,64 V 48 L 16,32 32,48 48,32 64,48 V 64 M 64,16 V 32 L 48,16 32,32 16,16 0,32 V 16 L 16,0 32,16 48,0 64,16" id="path6"/>
  </g>
</svg>
